# xmcd CD database file
#
# Track frame offsets:
#	150
#	20870
#	40105
#	69410
#	90547
#	106927
#	134857
#	156352
#	176105
#	190782
#	210347
#	230802
#	250850
#
# Disc length: 3697 seconds
#
# Revision: 2
# Processed by: cddbd v1.5.2PL0 Copyright (c) Steve Scherf et al.
# Submitted via: CDex 1.51
#
DISCID=b80e6f0d
DTITLE=Various Artist - Paint It Blue: The Songs Of The Rolling Stones
DYEAR=1900
DGENRE=
TTITLE0=You Can't Always Get What You Want
TTITLE1=Tumblin' Dice
TTITLE2=Wild Horses
TTITLE3=Honky Tonk Women
TTITLE4=Sway
TTITLE5=Ventilator Blues
TTITLE6=Beast Of Burden
TTITLE7=Under My Thumb
TTITLE8=It's All Over Now
TTITLE9=Midnight Rambler
TTITLE10=Heart Of Stone
TTITLE11=Moonlight Mile
TTITLE12=(I Can't Get No) Satisfaction
EXTD=
EXTT0=Luther Allison
EXTT1=Johnny Copeland
EXTT2=Otis Clay
EXTT3=Taj Mahal and James Cotton
EXTT4=Alvin 'Youngblood' Hart
EXTT5=Clarence 'Gatemouth' Brown and Larry McCray
EXTT6=Wendell Holmes
EXTT7=Lucky Peterson
EXTT8=Bobby Womack
EXTT9=Larry McCray
EXTT10=Joe Louis Walker
EXTT11=Alvin 'Youngblood' Hart
EXTT12=Junior Wells
PLAYORDER=
